<?xml version="1.0" encoding="UTF-8"?>
<!DOCTYPE svg PUBLIC "-//W3C//DTD SVG 1.1//EN" "http://www.w3.org/Graphics/SVG/1.1/DTD/svg11.dtd">
<!-- Creator: CorelDRAW -->
<svg xmlns="http://www.w3.org/2000/svg" xml:space="preserve" width="13in" height="8.5in" version="1.1" style="shape-rendering:geometricPrecision; text-rendering:geometricPrecision; image-rendering:optimizeQuality; fill-rule:evenodd; clip-rule:evenodd"
viewBox="0 0 13000 8500"
 xmlns:xlink="http://www.w3.org/1999/xlink"
 xmlns:xodm="http://www.corel.com/coreldraw/odm/2003">
 <defs>
  <style type="text/css">
   <![CDATA[
    .fil2 {fill:#FEFEFE}
    .fil0 {fill:#10B616}
    .fil1 {fill:#10B616;fill-rule:nonzero}
   ]]>
  </style>
 </defs>
 <g id="Layer_x0020_1">
  <metadata id="CorelCorpID_0Corel-Layer"/>
  <g id="_2205553977616">
   <g>
    <path class="fil0" d="M5887.11 2806.26c641.02,0 1160.67,519.65 1160.67,1160.67 0,641.02 -519.65,1160.67 -1160.67,1160.67 -641.02,0 -1160.67,-519.65 -1160.67,-1160.67 0,-641.02 519.65,-1160.67 1160.67,-1160.67zm585.04 575.63c-149.7,-149.7 -356.55,-242.3 -585.04,-242.3 -228.49,0 -435.34,92.6 -585.04,242.3 -149.7,149.7 -242.3,356.54 -242.3,585.04 0,228.49 92.6,435.34 242.3,585.04 149.69,149.7 356.54,242.3 585.04,242.3 228.49,0 435.34,-92.6 585.04,-242.3 149.7,-149.7 242.3,-356.54 242.3,-585.04 0,-228.5 -92.6,-435.34 -242.3,-585.04z"/>
   </g>
   <g>
    <path class="fil0" d="M3407.06 2816.36c641.02,0 1160.67,519.65 1160.67,1160.67 0,641.02 -519.65,1160.67 -1160.67,1160.67 -641.02,0 -1160.67,-519.65 -1160.67,-1160.67 0,-641.02 519.65,-1160.67 1160.67,-1160.67zm585.04 575.63c-149.7,-149.7 -356.54,-242.3 -585.04,-242.3 -228.5,0 -435.34,92.59 -585.04,242.29 -149.7,149.7 -242.29,356.54 -242.29,585.04 0,228.5 92.6,435.34 242.3,585.04 149.69,149.7 356.54,242.3 585.04,242.3 228.49,0 435.34,-92.6 585.04,-242.3 149.7,-149.7 242.3,-356.54 242.3,-585.04 0,-228.49 -92.6,-435.34 -242.3,-585.04z"/>
   </g>
   <g>
    <path class="fil0" d="M5887.11 3252.44c400.64,0 725.42,324.78 725.42,725.42 0,400.64 -324.78,725.42 -725.42,725.42 -400.64,0 -725.42,-324.78 -725.42,-725.42 0,-400.64 324.78,-725.42 725.42,-725.42zm277.27 448.15c-70.93,-70.93 -168.97,-114.81 -277.27,-114.81 -108.3,0 -206.34,43.88 -277.27,114.81 -70.93,70.93 -114.81,168.97 -114.81,277.27 0,108.3 43.88,206.34 114.81,277.27 70.93,70.93 168.97,114.81 277.27,114.81 108.3,0 206.34,-43.88 277.27,-114.81 70.93,-70.93 114.81,-168.97 114.81,-277.27 0,-108.3 -43.88,-206.34 -114.81,-277.27z"/>
   </g>
   <g>
    <path class="fil0" d="M3407.06 3262.54c400.64,0 725.42,324.78 725.42,725.42 0,400.64 -324.78,725.42 -725.42,725.42 -400.63,0 -725.42,-324.78 -725.42,-725.42 0,-400.64 324.78,-725.42 725.42,-725.42zm277.27 448.15c-70.93,-70.93 -168.97,-114.81 -277.27,-114.81 -108.3,0 -206.34,43.88 -277.27,114.81 -70.93,70.93 -114.81,168.97 -114.81,277.27 0,108.31 43.88,206.34 114.81,277.27 70.93,70.93 168.97,114.81 277.27,114.81 108.3,0 206.34,-43.88 277.27,-114.81 70.93,-70.93 114.81,-168.96 114.81,-277.27 0,-108.3 -43.88,-206.34 -114.81,-277.27z"/>
   </g>
   <path class="fil0" d="M5887.11 3629.66c192.31,0 348.2,155.89 348.2,348.2 0,192.3 -155.89,348.2 -348.2,348.2 -192.31,0 -348.2,-155.9 -348.2,-348.2 0,-192.31 155.89,-348.2 348.2,-348.2z"/>
   <path class="fil0" d="M3407.06 3639.76c192.31,0 348.2,155.89 348.2,348.2 0,192.3 -155.89,348.2 -348.2,348.2 -192.3,0 -348.2,-155.9 -348.2,-348.2 0,-192.31 155.9,-348.2 348.2,-348.2z"/>
   <path class="fil1" d="M1514.2 2688.22l476.56 0 0 1656.94c0,263.79 -20.87,448.73 -62.61,555.41 -41.74,106.09 -110.73,190.74 -206.39,253.35 -96.24,63.19 -211.03,94.5 -345.53,94.5 -273.65,0 -507.29,-120.59 -700.35,-361.77l341.48 -321.77c75.37,86.39 139.72,143.78 192.48,173.35 53.34,29.57 104.36,44.06 154.22,44.06 50.44,0 88.12,-21.45 113.05,-64.35 24.93,-42.91 37.11,-137.41 37.11,-283.5l0 -1746.23zm5816.71 -62.61l462.65 0 0 2560.21 -462.65 0 0 -2560.21zm1345.04 0l0 917.18c83.48,-82.91 173.93,-145.52 271.33,-187.26 97.4,-41.16 201.76,-62.03 312.49,-62.03 240.6,0 445.26,91.02 613.96,272.48 168.71,182.04 252.77,415.11 252.77,699.77 0,274.22 -86.96,503.81 -261.47,688.17 -173.93,184.94 -380.32,277.12 -619.18,277.12 -106.09,0 -205.24,-19.13 -296.83,-56.81 -91.6,-37.69 -182.63,-99.14 -273.07,-184.94l0 196.54 -462.65 0 0 -2560.21 462.65 0zm485.83 1092.26c-145.52,0 -266.69,49.86 -362.35,149 -96.24,99.72 -144.36,229.59 -144.36,390.18 0,164.07 48.12,296.83 144.36,397.71 95.66,101.46 216.83,151.9 362.35,151.9 141.46,0 260.31,-51.6 357.13,-154.22 96.82,-103.2 144.94,-234.22 144.94,-393.65 0,-158.28 -47.54,-288.14 -142.62,-389.02 -94.5,-101.46 -214.51,-151.9 -359.45,-151.9zm2715 -379.16l462.65 0 0 1847.11 -462.65 0 0 -196.54c-90.44,85.81 -181.46,147.26 -272.48,184.94 -91.02,37.69 -190.16,56.81 -296.26,56.81 -239.44,0 -445.83,-92.18 -620.34,-277.12 -174.51,-184.36 -261.47,-413.95 -261.47,-688.17 0,-284.66 84.64,-517.72 253.35,-699.77 168.71,-181.46 373.36,-272.48 614.54,-272.48 111.31,0 215.09,20.87 312.49,62.03 97.4,41.17 187.26,103.78 270.17,186.1l0 -202.91zm-487.57 379.16c-143.78,0 -263.21,50.44 -357.71,151.9 -95.08,100.88 -142.62,230.74 -142.62,389.02 0,159.43 48.12,290.46 144.94,393.65 96.82,102.62 215.67,154.22 357.13,154.22 145.52,0 266.69,-50.44 362.35,-151.9 96.24,-100.88 144.36,-233.64 144.36,-397.71 0,-160.59 -48.12,-290.46 -144.36,-390.18 -95.66,-99.14 -217.41,-149 -364.09,-149z"/>
   <path class="fil2" d="M3150.71 3956.24c-2.74,-3.16 122.4,-322.15 417.47,-206.3 -144.68,-149.3 -443.24,-41.71 -417.47,206.3z"/>
   <path class="fil2" d="M5623.07 3956.29c-2.74,-3.16 122.4,-322.15 417.47,-206.3 -144.68,-149.3 -443.24,-41.71 -417.47,206.3z"/>
  </g>
 </g>
</svg>
